PathFileType	4	(X/Y/Z)	C:/Users/beibeiliu/ov580/test_trc/User1\sequence.21_training_dense_right.trc
DataRate	CameraRate	NumFrames	NumMarkers	Units	OrigDataRate	OrigDataStartFrame	OrigNumFrames
120	120	14	19	mm	120	141	280
Frame#	Time	ThumbCMC			ThumbMCP			ThumbIP			ThumbTip			IndexMCP			IndexPIP			IndexTip			MiddleMCP			MiddlePIP			MiddleTip			RingMCP			RingPIP			RingTip			PinkyMCP			PinkyPIP			PinkyTip			BackHand1			BackHand2			BackHand3	
		X0	Y0	Z0	X1	Y1	Z1	X2	Y2	Z2	X3	Y3	Z3	X4	Y4	Z4	X5	Y5	Z5	X6	Y6	Z6	X7	Y7	Z7	X8	Y8	Z8	X9	Y9	Z9	X10	Y10	Z10	X11	Y11	Z11	X12	Y12	Z12	X13	Y13	Z13	X14	Y14	Z14	X15	Y15	Z15	X16	Y16	Z16	X17	Y17	Z17	X18	Y18	Z18	
140	1.16667	112.922	61.7314	76.1835	100.804	72.2583	37.8467	116.747	84.5216	15.464	147.516	85.4997	6.81909	117.936	133.009	36.4344	122.039	154.73	12.7878	121.315	169.608	-8.33489	142.631	138.962	29.4594	139.862	161.593	5.259	144.585	176.994	-19.6626	165.617	130.943	25.62	160.313	151.58	8.3926	160.475	169.266	-14.8851	180.722	105.544	28.3121	178.233	122.697	16.6631	173.632	148.956	2.57795	172.876	91.5874	67.1176	174.467	75.2959	92.1612	136.71	90.3764	88.3256	
141	1.175	110.218	56.7911	77.0375	104.731	71.1778	37.5462	117.611	85.9638	12.6342	146.946	82.62	6.20981	117.841	134.594	33.3499	124.221	150.995	13.6393	126.908	165.512	-9.64878	146.529	136.737	26.9729	140.405	158.378	5.04313	144.142	174.385	-19.6204	161.518	130.399	24.5142	163.433	150.639	5.31897	159.519	164.974	-11.7124	184.21	104.65	27.0067	180.126	124.045	12.2738	178.724	143.408	1.90556	168.723	94.1529	67.0542	177.695	73.3257	94.5382	141.743	88.909	86.4819	
142	1.18333	109.98	59.6184	74.5025	99.883	67.827	36.8517	116.061	82.7689	11.8919	143.158	79.7237	2.8279	121.131	131.002	32.6756	121.678	148.97	13.2232	125.36	164.468	-8.94596	145.682	137.368	24.7966	145.329	154.519	4.09065	145.081	174.458	-25.0395	164.218	129.866	22.1517	161.475	146.374	7.60063	160.968	166.153	-16.5689	182.488	105.049	25.3381	179.089	120.436	13.838	181.03	143.573	1.99527	169.597	89.2894	68.0209	178.486	75.4493	91.3297	138.129	89.4601	87.1522	
143	1.19167	112.762	58.5944	74.6412	99.1969	63.2992	38.5383	113.009	77.9826	10.0605	143.355	78.183	-0.173215	119.378	126.871	33.2679	121.032	149.225	10.3279	128.242	162.247	-11.9035	145.55	133.813	25.7046	145.148	153.429	3.29353	143.478	172.374	-24.8834	164.184	123.742	24.6926	164.775	147.965	1.60914	161.004	162.207	-15.7919	183.549	101.456	26.258	182.05	117.909	12.3068	175.423	142.147	2.45665	168.734	93.6701	65.823	175.364	69.6125	94.386	139.254	86.0517	84.0725	
144	1.2	112.195	53.5185	78.4416	96.9442	60.7173	38.6596	109.708	72.9963	12.9181	134.778	73.3827	-4.23394	119.52	128.294	30.8333	124.427	147.108	9.24255	123.803	160.493	-10.5258	142.162	131.314	25.8399	143.171	152.944	1.17266	142.978	169.482	-23.0857	163.908	124.798	21.9097	164.499	142.198	4.39684	162.381	161.701	-18.0903	184.232	101.677	24.5377	179.637	120.564	9.89464	175.636	137.55	2.09551	169.266	90.4932	62.9901	175.162	69.5666	95.0984	139.624	88.0573	85.0277	
145	1.20833	111.068	54.5294	77.6327	97.5751	61.0548	39.514	104.77	69.7139	11.7271	130.472	71.4746	-5.28252	121.269	126.116	29.2634	122.149	144.057	11.3852	123.487	159.602	-11.8277	143.507	130.571	25.6197	142.06	151.23	2.71241	143.84	167.665	-23.5245	162.353	123.074	22.6765	161.73	144.095	2.87356	161.586	159.102	-18.9578	180.46	99.4183	24.7694	178.442	115.941	10.8471	178.425	137.035	-1.7952	172.664	87.1672	64.872	175.369	69.9991	92.8172	141.601	86.0888	84.9706	
146	1.21667	108.629	56.7923	75.8583	95.5547	58.0155	42.3125	103.479	70.2319	12.4909	125.564	68.4687	-3.71229	115.188	127.153	29.0409	116.407	141.701	11.9041	123.537	158.633	-14.5493	140.461	129.489	23.373	139.644	150.607	0.126553	140.144	168.7	-27.7457	161.007	119.907	21.3122	158.879	142.461	0.513648	157.27	157.431	-18.6907	178.577	101.923	21.2626	174.56	117.589	7.28586	168.076	137.233	-5.93324	166.312	90.8978	63.7736	174.078	70.0101	89.5834	138.2	83.0169	84.8248	
147	1.225	104.193	54.982	76.356	91.7869	56.6603	41.5138	100.24	67.6172	13.941	123.96	68.1677	-1.81518	114.641	122.336	28.8795	115.556	141.67	9.12532	118.167	157.428	-15.3774	139.155	130.773	20.4621	133.906	151.774	-2.4304	131.384	167.917	-28.4342	155.147	120.134	19.5086	154.808	140.301	0.684105	152.139	156.916	-19.6117	172.185	97.9051	22.665	171.913	114.372	6.6344	167.931	135.239	-5.60373	163.726	88.2422	64.1032	168.8	71.5238	88.228	136.24	82.3477	83.995	
148	1.23333	102.85	53.4514	76.6515	87.2025	57.0909	39.3822	96.9353	69.0164	10.7808	122.141	67.0085	-3.79702	107.355	123.857	27.7484	109.927	141.926	5.57368	109.81	157.374	-15.9319	131.084	129.962	19.7334	130.237	147.32	-0.372086	128.68	165.412	-29.5541	148.894	121.499	17.6689	150.057	139.704	-0.040519	144.031	155.406	-20.5448	168.846	101.523	19.4568	168.739	116.403	3.34695	160.431	136.001	-10.4057	160.563	88.5154	60.5372	165.736	71.0093	89.8197	132.87	83.799	84.4194	
149	1.24167	96.8946	50.6778	76.8869	84.4714	54.1847	42.0491	93.767	67.7652	10.1411	122.344	66.4837	0.814291	104.531	120.612	27.6178	104.657	137.274	7.46544	107.166	152.403	-14.4848	125.083	127.557	21.146	121.954	146.58	-1.82421	122.255	164.625	-29.6866	143.006	120.084	17.5418	142.084	137.799	-0.750126	138.8	157.644	-23.4528	163.099	101.566	18.0581	162.06	116.509	4.12092	155.661	136.452	-9.30368	155.044	88.7702	62.5854	163.905	71.9032	89.054	123.841	83.6896	82.9543	
150	1.25	95.7317	49.5296	76.7226	82.7895	57.0664	38.9368	93.7739	67.2254	12.9909	122.57	68.7345	-1.19416	96.3543	119.856	27.8618	95.2616	138.03	8.70569	96.7066	155.163	-18.8631	121.437	129.173	18.4538	117.784	148.23	-4.82526	116.025	164.905	-31.2871	140.666	119.615	17.6712	136.492	142.086	-3.38593	131.754	154.784	-20.9671	158.44	100.447	19.9889	158.291	114.751	6.92533	153.375	136.953	-7.52902	150.058	91.4221	61.2604	157.632	73.8923	87.9061	121.384	83.8132	81.3306	
151	1.25833	93.6106	50.6454	74.2093	80.6232	54.7819	37.188	97.434	69.2994	13.0002	123.781	67.277	2.16157	94.0902	118.493	27.2973	97.5142	136.372	6.78665	98.3413	154.212	-19.9755	121.073	126.548	19.4909	115.706	146.262	-3.04127	111.366	162.625	-28.1846	141.855	123.375	14.154	137.09	141.951	-3.76327	133.249	153.508	-22.1714	162.695	101.388	19.1856	157.232	116.984	4.66247	152.203	136.81	-9.82235	148.851	89.6711	61.4594	160.975	70.6015	89.7107	119.889	81.9922	80.9664	
152	1.26667	99.1969	48.7048	72.8997	83.4581	53.4086	36.8565	98.735	68.9795	7.03331	127.031	67.6635	-1.03512	100.083	117.497	25.1393	98.8725	137.165	4.84246	101.278	152.156	-19.2506	123.085	129.952	15.4073	116.411	146.149	-5.25152	118.97	163.098	-30.8476	143.89	119.189	16.2563	137.475	136.989	-1.21451	133.674	152.354	-22.3935	161.85	99.2918	19.2344	161.757	117.222	1.81027	155.012	133.976	-7.75998	155.844	89.5232	61.5658	157.187	68.3165	89.7941	120.521	79.3021	81.5929	
153	1.275	100.752	46.8774	73.7397	86.7313	55.0296	34.9701	102.704	69.7619	6.88541	131.417	65.971	-3.66541	100.441	119.688	22.8501	103.51	137.743	3.55967	108.145	152.142	-19.1101	125.658	125.51	18.5317	124.263	146.901	-8.00679	120.854	164.274	-33.1079	146.115	121.33	14.7325	143.962	138.525	-4.6348	142.634	153.424	-24.6711	166.789	99.8339	18.7834	165.139	115.129	2.24981	157.104	134.902	-10.2724	157.438	89.1568	60.0018	161.721	73.0848	87.5678	125.487	79.3343	80.4415	
